<?xml version="1.0" encoding="UTF-8" standalone="no"?>
<!-- Creator: CorelDRAW -->

<svg
   xmlns:dc="http://purl.org/dc/elements/1.1/"
   xmlns:cc="http://creativecommons.org/ns#"
   xmlns:rdf="http://www.w3.org/1999/02/22-rdf-syntax-ns#"
   xmlns:svg="http://www.w3.org/2000/svg"
   xmlns="http://www.w3.org/2000/svg"
   xmlns:sodipodi="http://sodipodi.sourceforge.net/DTD/sodipodi-0.dtd"
   xmlns:inkscape="http://www.inkscape.org/namespaces/inkscape"
   xml:space="preserve"
   width="30"
   height="30"
   style="shape-rendering:geometricPrecision; text-rendering:geometricPrecision; image-rendering:optimizeQuality; fill-rule:evenodd; clip-rule:evenodd"
   viewBox="0 0 58.282 58.282"
   version="1.1"
   id="svg865"
   sodipodi:docname="phone1.svg"
   inkscape:version="0.92.4 (5da689c313, 2019-01-14)"><metadata
   id="metadata869"><rdf:RDF><cc:Work
       rdf:about=""><dc:format>image/svg+xml</dc:format><dc:type
         rdf:resource="http://purl.org/dc/dcmitype/StillImage" /><dc:title></dc:title></cc:Work></rdf:RDF></metadata><sodipodi:namedview
   pagecolor="#ffffff"
   bordercolor="#666666"
   borderopacity="1"
   objecttolerance="10"
   gridtolerance="10"
   guidetolerance="10"
   inkscape:pageopacity="0"
   inkscape:pageshadow="2"
   inkscape:window-width="2560"
   inkscape:window-height="1061"
   id="namedview867"
   showgrid="false"
   inkscape:zoom="7.8666667"
   inkscape:cx="15"
   inkscape:cy="15"
   inkscape:window-x="-8"
   inkscape:window-y="-8"
   inkscape:window-maximized="1"
   inkscape:current-layer="Layer_x0020_1" />
 <defs
   id="defs855">
  <style
   type="text/css"
   id="style853">
   <![CDATA[
    .fil0 {fill:#1B1C1F}
    .fil1 {fill:#1B1C1F;fill-rule:nonzero}
   ]]>
  </style>
 </defs>
 <g
   id="Layer_x0020_1">
  <metadata
   id="CorelCorpID_0Corel-Layer" />
  <g
   id="_152222920"
   transform="rotate(90,29.138544,29.140952)">
   <path
   id="_152222248"
   class="fil0"
   d="m 24.1857,22.4995 c -5.44655,3.14453 2.86367,18.724 8.82368,15.283 1.0584,1.83322 4.46756,7.73807 5.52595,9.57124 -2.51464,1.45186 -4.64315,2.36711 -7.55853,0.700539 -8.09458,-4.6273 -17.0046,-20.0543 -16.7511,-29.2558 0.08805,-3.19599 1.971,-4.44824 4.43399,-5.87024 1.0584,1.83316 4.46756,7.73801 5.52595,9.57124 z"
   style="fill:#ffffff;fill-opacity:1"
   inkscape:connector-curvature="0" />
   <path
   id="_150519168"
   class="fil0"
   d="m 26.4704,22.2399 c -0.588492,0.339781 -1.3458,0.136973 -1.68564,-0.451581 l -5.2095,-9.02316 c -0.339842,-0.588616 -0.137035,-1.34586 0.451519,-1.6857 l 2.73799,-1.58075 c 0.588554,-0.339842 1.34598,-0.13685 1.68576,0.451704 l 5.2095,9.0231 c 0.339781,0.588492 0.136912,1.3458 -0.451581,1.68558 l -2.73805,1.58081 z"
   style="fill:#ffffff;fill-opacity:1"
   inkscape:connector-curvature="0" />
   <path
   id="_226148072"
   class="fil0"
   d="m 40.7023,46.8904 c -0.588492,0.339781 -1.3458,0.136973 -1.68564,-0.451642 l -5.2095,-9.02316 c -0.339842,-0.588554 -0.137035,-1.34586 0.451519,-1.68564 l 2.73799,-1.58081 c 0.588554,-0.339781 1.34598,-0.136788 1.68576,0.451704 l 5.2095,9.0231 c 0.339781,0.588554 0.136912,1.34586 -0.451581,1.68564 l -2.73805,1.58081 z"
   style="fill:#fcfcfd;fill-opacity:1"
   inkscape:connector-curvature="0" />
  </g>
  <path
   class="fil1"
   d="m 58.281929,29.140932 v 4.32e-4 h -0.0068 c -1.24e-4,8.04997 -3.26003,15.335 -8.52962,20.6045 -5.26934,5.26928 -12.5539,8.52907 -20.6036,8.52931 v 0.0068 h -9.26e-4 -4.31e-4 v -0.0068 c -8.05003,-1.23e-4 -15.335,-3.26003 -20.6045005,-8.52962 -5.26928,-5.26941 -8.52907,-12.554 -8.52931,-20.6037 H -3.2466e-5 v -9.25e-4 -4.32e-4 H 0.0067545 c 1.234e-4,-8.04997 3.26003,-15.3349 8.52962,-20.6044 C 13.805785,3.266817 21.090375,0.00702697 29.140075,0.00678697 V 0 h 9.25e-4 4.32e-4 v 0.00678697 c 8.04997,1.234e-4 15.3349,3.26003003 20.6044,8.52962003 5.26928,5.26934 8.52907,12.5539 8.52931,20.6036 h 0.0068 z m -3.47579,4.32e-4 h -0.0068 v -4.32e-4 -9.25e-4 h 0.0068 c -1.85e-4,-7.07918 -2.87527,-13.4939 -7.52262,-18.1413 -4.6476,-4.64766 -11.0626,-7.52287 -18.1421,-7.52293 v 0.00679 h -4.32e-4 -9.26e-4 v -0.00679 c -7.07924,1.851e-4 -13.4939,2.87527 -18.1414,7.52262 -4.6476595,4.6476 -7.5228695,11.0626 -7.5229295,18.1421 h 0.00679 v 4.32e-4 9.25e-4 h -0.00679 c 1.851e-4,7.07924 2.87527,13.4939 7.5226195,18.1414 4.6476,4.64766 11.0626,7.52287 18.1422,7.52293 v -0.0068 h 4.32e-4 9.26e-4 v 0.0068 c 7.07918,-1.85e-4 13.4939,-2.87527 18.1413,-7.52262 4.64766,-4.6476 7.52287,-11.0626 7.52293,-18.1422 z"
   id="path862"
   style="fill:#ffffff;fill-opacity:1;fill-rule:nonzero"
   inkscape:connector-curvature="0" />
 </g>
</svg>