<?xml version="1.0" encoding="UTF-8" standalone="no"?>
<svg
   xmlns:osb="http://www.openswatchbook.org/uri/2009/osb"
   xmlns:dc="http://purl.org/dc/elements/1.1/"
   xmlns:cc="http://creativecommons.org/ns#"
   xmlns:rdf="http://www.w3.org/1999/02/22-rdf-syntax-ns#"
   xmlns:svg="http://www.w3.org/2000/svg"
   xmlns="http://www.w3.org/2000/svg"
   xmlns:sodipodi="http://sodipodi.sourceforge.net/DTD/sodipodi-0.dtd"
   xmlns:inkscape="http://www.inkscape.org/namespaces/inkscape"
   width="24"
   height="24"
   viewBox="0 0 30 30"
   fill="none"
   version="1.1"
   id="svg827"
   sodipodi:docname="telegramN.svg"
   inkscape:version="0.92.4 (5da689c313, 2019-01-14)">
  <metadata
     id="metadata833">
    <rdf:RDF>
      <cc:Work
         rdf:about="">
        <dc:format>image/svg+xml</dc:format>
        <dc:type
           rdf:resource="http://purl.org/dc/dcmitype/StillImage" />
        <dc:title />
      </cc:Work>
    </rdf:RDF>
  </metadata>
  <defs
     id="defs831">
    <linearGradient
       id="linearGradient2284"
       osb:paint="solid">
      <stop
         style="stop-color:#141414;stop-opacity:1;"
         offset="0"
         id="stop2282" />
    </linearGradient>
  </defs>
  <sodipodi:namedview
     pagecolor="#ffffff"
     bordercolor="#666666"
     borderopacity="1"
     objecttolerance="10"
     gridtolerance="10"
     guidetolerance="10"
     inkscape:pageopacity="0"
     inkscape:pageshadow="2"
     inkscape:window-width="2560"
     inkscape:window-height="1061"
     id="namedview829"
     showgrid="false"
     inkscape:zoom="29.8"
     inkscape:cx="-6.6107384"
     inkscape:cy="15"
     inkscape:window-x="-8"
     inkscape:window-y="-8"
     inkscape:window-maximized="1"
     inkscape:current-layer="svg827" />
  <path
     d="M 15,30 C 23.2863,30 30,23.2863 30,15 30,6.71375 23.2863,0 15,0 6.71375,0 0,6.71375 0,15 0,23.2863 6.71375,30 15,30 Z M 6.86375,14.675 21.3263,9.09875 c 0.6712,-0.2425 1.2574,0.16375 1.0399,1.17875 L 22.3675,10.2762 19.905,21.8775 C 19.7225,22.7 19.2337,22.9 18.55,22.5125 l -3.75,-2.7638 -1.8088,1.7426 c -0.2,0.2 -0.3687,0.3687 -0.7562,0.3687 l 0.2663,-3.8162 6.95,-6.2788 C 19.7537,11.4987 19.3837,11.3488 18.985,11.6138 L 10.3963,17.0212 6.69375,15.8663 C 5.89,15.6112 5.8725,15.0625 6.86375,14.675 Z"
     id="path825"
     style="fill-opacity:1;fill:#141414"
     inkscape:connector-curvature="0" />
</svg>
