<?xml version="1.0" encoding="UTF-8" standalone="no"?>
<svg xmlns:dc="http://purl.org/dc/elements/1.1/"
    xmlns:cc="http://creativecommons.org/ns#"
    xmlns:rdf="http://www.w3.org/1999/02/22-rdf-syntax-ns#"
    xmlns:svg="http://www.w3.org/2000/svg"
    xmlns="http://www.w3.org/2000/svg"
    xmlns:sodipodi="http://sodipodi.sourceforge.net/DTD/sodipodi-0.dtd"
    xmlns:inkscape="http://www.inkscape.org/namespaces/inkscape" id="Capa_1" enable-background="new 0 0 512 512" height="26" viewBox="0 0 512 512" width="26" version="1.1" sodipodi:docname="topography.svg" inkscape:version="0.92.4 (5da689c313, 2019-01-14)">
    <metadata id="metadata17">
        <rdf:RDF>
            <cc:Work rdf:about="">
                <dc:format>image/svg+xml</dc:format>
                <dc:type rdf:resource="http://purl.org/dc/dcmitype/StillImage" />
                <dc:title></dc:title>
            </cc:Work>
        </rdf:RDF>
    </metadata>
    <defs id="defs15" />
    <sodipodi:namedview pagecolor="#ffffff" bordercolor="#666666" borderopacity="1" objecttolerance="10" gridtolerance="10" guidetolerance="10" inkscape:pageopacity="0" inkscape:pageshadow="2" inkscape:window-width="711" inkscape:window-height="480" id="namedview13" showgrid="false" inkscape:zoom="0.4609375" inkscape:cx="256" inkscape:cy="256" inkscape:window-x="0" inkscape:window-y="0" inkscape:window-maximized="0" inkscape:current-layer="Capa_1" />
    <g id="g10" style="stroke:#fe5a1d;stroke-opacity:1;fill:#fe5a1d;fill-opacity:1">
        <path d="m416.274 251.554h-20.34l-.785-20.859c9.301-1.613 17.574-6.546 23.483-14.071 6.386-8.132 9.173-18.263 7.849-28.527l-3.312-25.675c-2.188-16.963-15.395-30.198-31.827-32.877l-3.764-100.038c-.622-16.546-14.079-29.507-30.637-29.507h-204.668c-16.558 0-30.015 12.961-30.638 29.507l-3.396 90.252h-22.513c-7.428 0-13.471 6.043-13.471 13.471v40.955c0 7.428 6.043 13.472 13.471 13.472h19.959l-.648 17.224h-19.31c-7.428 0-13.471 6.043-13.471 13.471v40.955c0 7.428 6.043 13.471 13.471 13.471h16.756l-2.748 73.03c-.373 9.898 3.206 19.277 10.077 26.412 6.871 7.134 16.11 11.064 26.015 11.064h56.817v27.07h-15.094c-9.015 0-16.349 7.334-16.349 16.349v26.135c0 9.015 7.334 16.349 16.349 16.349h15.094v35.313c0 4.142 3.358 7.5 7.5 7.5h91.716c4.142 0 7.5-3.358 7.5-7.5v-35.314h15.094c9.015 0 16.349-7.334 16.349-16.349v-26.135c0-9.015-7.334-16.349-16.349-16.349h-15.094v-27.07h54.031c9.905 0 19.143-3.929 26.014-11.063s10.45-16.514 10.078-26.412l-1.593-42.346h18.387c7.428 0 13.471-6.043 13.471-13.471v-24.966c-.003-7.428-6.046-13.471-13.474-13.471zm-7.981-87.214 3.312 25.675c.805 6.242-.889 12.402-4.77 17.344-3.162 4.027-7.439 6.81-12.259 8.096l-2.649-70.406c8.569 2.602 15.172 10.028 16.366 19.291zm-238.855 203.943v-58.253h170.338v58.253zm0-73.254v-45.279h18.38v.788c0 12.263 9.977 22.24 22.24 22.24h1.714v22.251zm18.38-60.279h-18.38v-125.049h18.38zm49.284-151.969h35.009v27.221c0 .8-.65 1.45-1.45 1.45h-32.109c-.8 0-1.45-.651-1.45-1.45zm1.45 43.671h32.109c9.071 0 16.45-7.38 16.45-16.45v-27.221h12.045c3.992 0 7.239 3.247 7.239 7.24v160.518c0 3.992-3.248 7.24-7.239 7.24h-89.099c-3.992 0-7.24-3.247-7.24-7.24v-160.519c0-3.992 3.248-7.24 7.24-7.24h12.044v27.221c.001 9.071 7.381 16.451 16.451 16.451zm-11.78 146.326h55.67v22.251h-55.67zm70.67 0h1.714c12.263 0 22.239-9.977 22.239-22.24v-.788h18.38v45.279h-42.334v-22.251zm42.334-38.028h-18.38v-125.049h18.38zm0-200.533h-109.704c-4.142 0-7.5 3.358-7.5 7.5s3.358 7.5 7.5 7.5h109.705v45.484h-18.38v-4.681c0-12.263-9.977-22.24-22.239-22.24h-89.099c-12.263 0-22.24 9.977-22.24 22.24v4.681h-18.38v-45.484h30.634c4.142 0 7.5-3.358 7.5-7.5s-3.358-7.5-7.5-7.5h-30.634v-19.217h170.338v19.217zm-242.521 138.439v-37.898h20.42l-1.426 37.898zm0 85.122v-37.898h17.217l-1.426 37.897h-15.791zm57.183 110.505h-8.613c-5.791 0-11.193-2.297-15.21-6.469-4.017-4.171-6.109-9.655-5.892-15.442l11.901-316.302c.318-8.45 7.192-15.07 15.649-15.07h2.165zm139.92 128.717h-76.716v-27.814h76.716zm0-86.647h-28.128c-4.142 0-7.5 3.358-7.5 7.5s3.358 7.5 7.5 7.5h58.222c.744 0 1.349.605 1.349 1.349v26.135c0 .744-.605 1.349-1.349 1.349h-136.904c-.744 0-1.349-.605-1.349-1.349v-26.135c0-.744.605-1.349 1.349-1.349h48.683c4.142 0 7.5-3.358 7.5-7.5s-3.358-7.5-7.5-7.5h-18.588v-27.07h76.716v27.07zm84.241-48.539c-4.018 4.171-9.419 6.468-15.21 6.468h-8.613v-353.282h2.165c8.457 0 15.331 6.62 15.648 15.07l11.902 316.301c.218 5.788-1.875 11.272-5.892 15.443zm36.146-73.352h-17.422l-.824-21.908h18.247v21.908z" id="path2" style="stroke:#fe5a1d;stroke-opacity:1;fill:#fe5a1d;fill-opacity:1" />
        <path d="m254.607 217.326c17.923 0 32.504-14.582 32.504-32.504 0-17.923-14.581-32.505-32.504-32.505s-32.505 14.581-32.505 32.505c0 17.922 14.582 32.504 32.505 32.504zm0-50.01c9.652 0 17.504 7.852 17.504 17.505 0 9.652-7.852 17.504-17.504 17.504s-17.505-7.853-17.505-17.504c0-9.652 7.853-17.505 17.505-17.505z" id="path4" style="stroke:#fe5a1d;stroke-opacity:1;fill:#fe5a1d;fill-opacity:1" />
        <path d="m242.299 331.656h-24.454c-4.142 0-7.5 3.358-7.5 7.5s3.358 7.5 7.5 7.5h24.454c4.142 0 7.5-3.358 7.5-7.5s-3.358-7.5-7.5-7.5z" id="path6" style="stroke:#fe5a1d;stroke-opacity:1;fill:#fe5a1d;fill-opacity:1" />
        <path d="m294.156 331.656h-24.454c-4.142 0-7.5 3.358-7.5 7.5s3.358 7.5 7.5 7.5h24.454c4.142 0 7.5-3.358 7.5-7.5s-3.358-7.5-7.5-7.5z" id="path8" style="stroke:#fe5a1d;stroke-opacity:1;fill:#fe5a1d;fill-opacity:1" />
    </g>
</svg>
