<?xml version="1.0" encoding="UTF-8" standalone="no"?>
<svg xmlns:dc="http://purl.org/dc/elements/1.1/"
    xmlns:cc="http://creativecommons.org/ns#"
    xmlns:rdf="http://www.w3.org/1999/02/22-rdf-syntax-ns#"
    xmlns:svg="http://www.w3.org/2000/svg"
    xmlns="http://www.w3.org/2000/svg"
    xmlns:sodipodi="http://sodipodi.sourceforge.net/DTD/sodipodi-0.dtd"
    xmlns:inkscape="http://www.inkscape.org/namespaces/inkscape" id="outline" height="26" viewBox="0 0 512 512" width="26" version="1.1" sodipodi:docname="udemy.svg" inkscape:version="0.92.4 (5da689c313, 2019-01-14)">
    <metadata id="metadata41">
        <rdf:RDF>
            <cc:Work rdf:about="">
                <dc:format>image/svg+xml</dc:format>
                <dc:type rdf:resource="http://purl.org/dc/dcmitype/StillImage" />
                <dc:title></dc:title>
            </cc:Work>
        </rdf:RDF>
    </metadata>
    <defs id="defs39" />
    <sodipodi:namedview pagecolor="#ffffff" bordercolor="#666666" borderopacity="1" objecttolerance="10" gridtolerance="10" guidetolerance="10" inkscape:pageopacity="0" inkscape:pageshadow="2" inkscape:window-width="711" inkscape:window-height="480" id="namedview37" showgrid="false" inkscape:zoom="0.4609375" inkscape:cx="256" inkscape:cy="256" inkscape:window-x="0" inkscape:window-y="0" inkscape:window-maximized="0" inkscape:current-layer="outline" />
    <path d="m40 424h208a8.00008 8.00008 0 0 0 8-8v-30.47632l40.2334-101.761a19.99983 19.99983 0 0 0 -18.43164-27.76268h-123.251a23.97611 23.97611 0 0 0 -22.06055 14.54541c-.02734.06543-.05468.13086-.08105.19678l-41.83836 105.25781h-66.5708a8.00008 8.00008 0 0 0 -8 8v16a24.02718 24.02718 0 0 0 24 24zm200-16h-64a8.00917 8.00917 0 0 1 -8-8v-8h72zm-92.76855-131.23145a7.992 7.992 0 0 1 7.31933-4.76855h123.251a3.99957 3.99957 0 0 1 3.67578 5.57568c-.0293.06983-.05859.13965-.08594.21l-38.83107 98.21432h-134.77149zm-115.23145 115.23145h120v8a23.88238 23.88238 0 0 0 1.37622 8h-113.37622a8.00917 8.00917 0 0 1 -8-8z" id="path2" style="fill:#fe5a1d;fill-opacity:1" />
    <path d="m272 408v16h136a8.00008 8.00008 0 0 0 8-8v-88h56a24.02718 24.02718 0 0 0 24-24v-192a24.02718 24.02718 0 0 0 -24-24h-264a24.02718 24.02718 0 0 0 -24 24v128h16v-128a8.00917 8.00917 0 0 1 8-8h264a8.00917 8.00917 0 0 1 8 8v192a8.00917 8.00917 0 0 1 -8 8h-176v16h16v56h-40v16h112a8.00008 8.00008 0 0 0 8-8v-64h8v80zm104-24h-48v-56h16v16a8 8 0 0 0 16 0v-16h16z" id="path4" style="fill:#fe5a1d;fill-opacity:1" />
    <circle cx="160" cy="288" r="8" id="circle6" style="fill:#fe5a1d;fill-opacity:1" />
    <circle cx="184" cy="288" r="8" id="circle8" style="fill:#fe5a1d;fill-opacity:1" />
    <circle cx="216" cy="120" r="8" id="circle10" style="fill:#fe5a1d;fill-opacity:1" />
    <circle cx="240" cy="120" r="8" id="circle12" style="fill:#fe5a1d;fill-opacity:1" />
    <circle cx="264" cy="120" r="8" id="circle14" style="fill:#fe5a1d;fill-opacity:1" />
    <path d="m322.34277 245.65674 24 24 11.31446-11.31348-18.34375-18.34326 18.34375-18.34326-11.31446-11.31348-24 24a8 8 0 0 0 0 11.31348z" id="path16" style="fill:#fe5a1d;fill-opacity:1" />
    <path d="m437.65723 269.65674 24-24a8 8 0 0 0 0-11.31348l-24-24-11.31446 11.31348 18.34375 18.34326-18.34375 18.34326z" id="path18" style="fill:#fe5a1d;fill-opacity:1" />
    <path d="m331.074 232h121.852v16.001h-121.852z" transform="matrix(.394 -.919 .919 .394 16.989 505.764)" id="path20" style="fill:#fe5a1d;fill-opacity:1" />
    <path d="m216 152h16v16h-16z" id="path22" style="fill:#fe5a1d;fill-opacity:1" />
    <path d="m248 152h56v16h-56z" id="path24" style="fill:#fe5a1d;fill-opacity:1" />
    <path d="m216 184h16v16h-16z" id="path26" style="fill:#fe5a1d;fill-opacity:1" />
    <path d="m248 184h32v16h-32z" id="path28" style="fill:#fe5a1d;fill-opacity:1" />
    <path d="m216 216h16v16h-16z" id="path30" style="fill:#fe5a1d;fill-opacity:1" />
    <path d="m248 216h48v16h-48z" id="path32" style="fill:#fe5a1d;fill-opacity:1" />
    <path d="m320 152h32v16h-32z" id="path34" style="fill:#fe5a1d;fill-opacity:1" />
</svg>
