<?xml version="1.0" encoding="UTF-8" standalone="no"?>
<svg
   xmlns:osb="http://www.openswatchbook.org/uri/2009/osb"
   xmlns:dc="http://purl.org/dc/elements/1.1/"
   xmlns:cc="http://creativecommons.org/ns#"
   xmlns:rdf="http://www.w3.org/1999/02/22-rdf-syntax-ns#"
   xmlns:svg="http://www.w3.org/2000/svg"
   xmlns="http://www.w3.org/2000/svg"
   xmlns:sodipodi="http://sodipodi.sourceforge.net/DTD/sodipodi-0.dtd"
   xmlns:inkscape="http://www.inkscape.org/namespaces/inkscape"
   width="24"
   height="24"
   viewBox="0 0 19 20"
   fill="none"
   version="1.1"
   id="svg4"
   sodipodi:docname="githubN.svg"
   inkscape:version="0.92.4 (5da689c313, 2019-01-14)">
  <metadata
     id="metadata10">
    <rdf:RDF>
      <cc:Work
         rdf:about="">
        <dc:format>image/svg+xml</dc:format>
        <dc:type
           rdf:resource="http://purl.org/dc/dcmitype/StillImage" />
        <dc:title />
      </cc:Work>
    </rdf:RDF>
  </metadata>
  <defs
     id="defs8">
    <linearGradient
       id="linearGradient2282"
       osb:paint="solid">
      <stop
         style="stop-color:#a53409;stop-opacity:1;"
         offset="0"
         id="stop2280" />
    </linearGradient>
    <linearGradient
       id="linearGradient2263"
       osb:paint="solid">
      <stop
         style="stop-color:#a53409;stop-opacity:1;"
         offset="0"
         id="stop2261" />
    </linearGradient>
  </defs>
  <sodipodi:namedview
     pagecolor="#ffffff"
     bordercolor="#666666"
     borderopacity="1"
     objecttolerance="10"
     gridtolerance="10"
     guidetolerance="10"
     inkscape:pageopacity="0"
     inkscape:pageshadow="2"
     inkscape:window-width="2560"
     inkscape:window-height="1061"
     id="namedview6"
     showgrid="false"
     inkscape:zoom="11.8"
     inkscape:cx="-31.432204"
     inkscape:cy="10"
     inkscape:window-x="-8"
     inkscape:window-y="-8"
     inkscape:window-maximized="1"
     inkscape:current-layer="svg4" />
  <path
     d="m 9.4999994,0.49950137 c -5.5249899,0 -9.99998992,4.36167093 -9.99998992,9.74107063 0,4.30463 2.86500002,7.95513 6.83750002,9.24213 0.5,0.0917 0.6833,-0.2098 0.6833,-0.4684 0,-0.2313 -0.0083,-0.8442 -0.0125,-1.6563 -2.7816,0.5874 -3.3683,-1.3068 -3.3683,-1.3068 -0.455,-1.1243 -1.1125,-1.425 -1.1125,-1.425 -0.9058,-0.6039 0.07,-0.5915 0.07,-0.5915 1.0042,0.0678 1.5317,1.0037 1.5317,1.0037 0.8916,1.4894 2.3408,1.059 2.9125,0.8104 0.09,-0.6303 0.3475,-1.059 0.6333,-1.3027 -2.2208,-0.2437 -4.555,-1.0814 -4.555,-4.8135597 0,-1.06316 0.3875,-1.93219 1.0292,-2.61371 -0.1125,-0.24617 -0.45,-1.23663 0.0875,-2.57817 0,0 0.8375,-0.26104 2.75,0.99872 0.8,-0.21643 1.65,-0.32382 2.5,-0.32878 0.8499595,0.005 1.6999495,0.11235 2.4999595,0.32878 1.89999,-1.25976 2.73749,-0.99872 2.73749,-0.99872 0.5375,1.34154 0.20001,2.332 0.1,2.57817 0.6375,0.68152 1.025,1.55055 1.025,2.61371 0,3.7421597 -2.33749,4.5656597 -4.56249,4.8052597 0.35,0.2924 0.675,0.8897 0.675,1.8025 0,1.3036 -0.0125,2.351 -0.0125,2.6674 0,0.2553 0.175,0.5601 0.6875,0.4626 4.00083,-1.2788 6.863329,-4.9317 6.863329,-9.22973 0,-5.3793997 -4.477499,-9.74107063 -9.9999986,-9.74107063 z"
     id="path2"
     style="fill:#a53409;fill-opacity:1"
     inkscape:connector-curvature="0" />
</svg>
