<?xml version="1.0" encoding="UTF-8" standalone="no"?>
<svg
   xmlns:dc="http://purl.org/dc/elements/1.1/"
   xmlns:cc="http://creativecommons.org/ns#"
   xmlns:rdf="http://www.w3.org/1999/02/22-rdf-syntax-ns#"
   xmlns:svg="http://www.w3.org/2000/svg"
   xmlns="http://www.w3.org/2000/svg"
   xmlns:sodipodi="http://sodipodi.sourceforge.net/DTD/sodipodi-0.dtd"
   xmlns:inkscape="http://www.inkscape.org/namespaces/inkscape"
   aria-hidden="true"
   width="24"
   height="24"
   focusable="false"
   data-prefix="fas"
   data-icon="phone-square-alt"
   class="svg-inline--fa fa-phone-square-alt fa-w-14"
   role="img"
   viewBox="0 0 448 512"
   version="1.1"
   id="svg4"
   sodipodi:docname="phoneN.svg"
   inkscape:version="0.92.4 (5da689c313, 2019-01-14)">
  <metadata
     id="metadata10">
    <rdf:RDF>
      <cc:Work
         rdf:about="">
        <dc:format>image/svg+xml</dc:format>
        <dc:type
           rdf:resource="http://purl.org/dc/dcmitype/StillImage" />
        <dc:title />
      </cc:Work>
    </rdf:RDF>
  </metadata>
  <defs
     id="defs8" />
  <sodipodi:namedview
     pagecolor="#ffffff"
     bordercolor="#666666"
     borderopacity="1"
     objecttolerance="10"
     gridtolerance="10"
     guidetolerance="10"
     inkscape:pageopacity="0"
     inkscape:pageshadow="2"
     width="24"
     height="24"
     id="namedview6"
     showgrid="false"
     inkscape:zoom="20.85965"
     inkscape:cx="11.00489"
     inkscape:cy="14.056436"
     inkscape:window-x="-8"
     inkscape:window-y="-8"
     inkscape:window-maximized="1"
     inkscape:current-layer="svg4"
     inkscape:window-width="2560"
     inkscape:window-height="1061" />
  <path
     d="m 0,80 v 352 a 48,48 0 0 0 48,48 h 352 a 48,48 0 0 0 48,-48 V 80 A 48,48 0 0 0 400,32 H 48 A 48,48 0 0 0 0,80 Z m 307.37,16.39 65,15 A 15,15 0 0 1 384,126 C 384,286 254.29,416 94,416 A 15.7,15.7 0 0 1 79.39,404.37 l -15,-65 A 18.23,18.23 0 0 1 64,336 16.27,16.27 0 0 1 73.09,322.21 l 70,-30 A 17.9,17.9 0 0 1 149,291 a 17,17 0 0 1 11.61,5.5 l 31,37.89 A 231.91,231.91 0 0 0 302.39,223.61 l -37.89,-31 A 17,17 0 0 1 259,181 a 17.85,17.85 0 0 1 1.21,-5.91 l 30,-70 A 16.25,16.25 0 0 1 304,96 a 17.41,17.41 0 0 1 3.37,0.39 z"
     id="path2"
     style="fill:#a53409;fill-opacity:1"
     inkscape:connector-curvature="0" />
</svg>
