<?xml version="1.0" encoding="UTF-8" standalone="no"?>
<svg
   xmlns:dc="http://purl.org/dc/elements/1.1/"
   xmlns:cc="http://creativecommons.org/ns#"
   xmlns:rdf="http://www.w3.org/1999/02/22-rdf-syntax-ns#"
   xmlns:svg="http://www.w3.org/2000/svg"
   xmlns="http://www.w3.org/2000/svg"
   xmlns:sodipodi="http://sodipodi.sourceforge.net/DTD/sodipodi-0.dtd"
   xmlns:inkscape="http://www.inkscape.org/namespaces/inkscape"
   width="24"
   height="24"
   viewBox="0 0 30 30"
   fill="none"
   version="1.1"
   id="svg827"
   sodipodi:docname="telegram.svg"
   inkscape:version="0.92.4 (5da689c313, 2019-01-14)">
  <metadata
     id="metadata833">
    <rdf:RDF>
      <cc:Work
         rdf:about="">
        <dc:format>image/svg+xml</dc:format>
        <dc:type
           rdf:resource="http://purl.org/dc/dcmitype/StillImage" />
        <dc:title />
      </cc:Work>
    </rdf:RDF>
  </metadata>
  <defs
     id="defs831" />
  <sodipodi:namedview
     pagecolor="#ffffff"
     bordercolor="#666666"
     borderopacity="1"
     objecttolerance="10"
     gridtolerance="10"
     guidetolerance="10"
     inkscape:pageopacity="0"
     inkscape:pageshadow="2"
     inkscape:window-width="2560"
     inkscape:window-height="1061"
     id="namedview829"
     showgrid="false"
     inkscape:zoom="29.8"
     inkscape:cx="9.5973154"
     inkscape:cy="15"
     inkscape:window-x="-8"
     inkscape:window-y="-8"
     inkscape:window-maximized="1"
     inkscape:current-layer="svg827" />
  <path
     d="M 30,15 C 30,6.7137 23.2863,0 15,0 6.71375,0 0,6.7137 0,15 0,23.28625 6.71375,30 15,30 23.2863,30 30,23.28625 30,15 Z M 14.675,23.13625 9.09875,8.6737 C 8.85625,8.0025 9.2625,7.4163 10.2775,7.6338 L 10.2762,7.6325 21.8775,10.095 c 0.8225,0.1825 1.0225,0.6713 0.635,1.355 l -2.7638,3.75 1.7426,1.8088 c 0.2,0.2 0.3687,0.3687 0.3687,0.7562 l -3.8162,-0.2663 -6.2788,-6.95 c -0.2663,-0.3024 -0.4162,0.0676 -0.1512,0.4663 l 5.4074,8.5887 -1.1549,3.70255 c -0.2551,0.80375 -0.8038,0.82125 -1.1913,-0.17 z"
     id="path825"
     style="fill:#fe5a1d;fill-opacity:1"
     inkscape:connector-curvature="0" />
</svg>
