<?xml version="1.0" encoding="UTF-8" standalone="no"?>
<svg
   xmlns:dc="http://purl.org/dc/elements/1.1/"
   xmlns:cc="http://creativecommons.org/ns#"
   xmlns:rdf="http://www.w3.org/1999/02/22-rdf-syntax-ns#"
   xmlns:svg="http://www.w3.org/2000/svg"
   xmlns="http://www.w3.org/2000/svg"
   xmlns:sodipodi="http://sodipodi.sourceforge.net/DTD/sodipodi-0.dtd"
   xmlns:inkscape="http://www.inkscape.org/namespaces/inkscape"
   width="30"
   height="30"
   viewBox="0 0 30 30"
   fill="none"
   version="1.1"
   id="svg827"
   sodipodi:docname="telegram.svg"
   inkscape:version="0.92.4 (5da689c313, 2019-01-14)">
  <metadata
     id="metadata833">
    <rdf:RDF>
      <cc:Work
         rdf:about="">
        <dc:format>image/svg+xml</dc:format>
        <dc:type
           rdf:resource="http://purl.org/dc/dcmitype/StillImage" />
        <dc:title></dc:title>
      </cc:Work>
    </rdf:RDF>
  </metadata>
  <defs
     id="defs831" />
  <sodipodi:namedview
     pagecolor="#ffffff"
     bordercolor="#666666"
     borderopacity="1"
     objecttolerance="10"
     gridtolerance="10"
     guidetolerance="10"
     inkscape:pageopacity="0"
     inkscape:pageshadow="2"
     inkscape:window-width="2560"
     inkscape:window-height="1061"
     id="namedview829"
     showgrid="false"
     inkscape:zoom="29.8"
     inkscape:cx="15"
     inkscape:cy="15"
     inkscape:window-x="-8"
     inkscape:window-y="-8"
     inkscape:window-maximized="1"
     inkscape:current-layer="svg827" />
  <path
     d="M15 30C23.2863 30 30 23.2863 30 15C30 6.71375 23.2863 0 15 0C6.71375 0 0 6.71375 0 15C0 23.2863 6.71375 30 15 30ZM6.86375 14.675L21.3263 9.09875C21.9975 8.85625 22.5837 9.2625 22.3662 10.2775L22.3675 10.2762L19.905 21.8775C19.7225 22.7 19.2337 22.9 18.55 22.5125L14.8 19.7487L12.9912 21.4913C12.7912 21.6913 12.6225 21.86 12.235 21.86L12.5013 18.0438L19.4513 11.765C19.7537 11.4987 19.3837 11.3488 18.985 11.6138L10.3963 17.0212L6.69375 15.8663C5.89 15.6112 5.8725 15.0625 6.86375 14.675Z"
     fill="black"
     id="path825"
     style="fill:#ffffff;fill-opacity:0" />
</svg>
