<?xml version="1.0" encoding="UTF-8" standalone="no"?>
<!-- Generator: Adobe Illustrator 18.1.1, SVG Export Plug-In . SVG Version: 6.00 Build 0)  -->

<svg
   xmlns:dc="http://purl.org/dc/elements/1.1/"
   xmlns:cc="http://creativecommons.org/ns#"
   xmlns:rdf="http://www.w3.org/1999/02/22-rdf-syntax-ns#"
   xmlns:svg="http://www.w3.org/2000/svg"
   xmlns="http://www.w3.org/2000/svg"
   xmlns:sodipodi="http://sodipodi.sourceforge.net/DTD/sodipodi-0.dtd"
   xmlns:inkscape="http://www.inkscape.org/namespaces/inkscape"
   version="1.1"
   id="Capa_1"
   x="0px"
   y="0px"
   viewBox="0 0 27.764 27.764"
   style="enable-background:new 0 0 27.764 27.764;"
   xml:space="preserve"
   sodipodi:docname="design1.svg"
   inkscape:version="0.92.4 (5da689c313, 2019-01-14)"><metadata
   id="metadata45"><rdf:RDF><cc:Work
       rdf:about=""><dc:format>image/svg+xml</dc:format><dc:type
         rdf:resource="http://purl.org/dc/dcmitype/StillImage" /><dc:title></dc:title></cc:Work></rdf:RDF></metadata><defs
   id="defs43" /><sodipodi:namedview
   pagecolor="#ffffff"
   bordercolor="#666666"
   borderopacity="1"
   objecttolerance="10"
   gridtolerance="10"
   guidetolerance="10"
   inkscape:pageopacity="0"
   inkscape:pageshadow="2"
   inkscape:window-width="2560"
   inkscape:window-height="1061"
   id="namedview41"
   showgrid="false"
   inkscape:zoom="8.5002161"
   inkscape:cx="13.882"
   inkscape:cy="13.882"
   inkscape:window-x="-8"
   inkscape:window-y="-8"
   inkscape:window-maximized="1"
   inkscape:current-layer="Capa_1" />
<g
   id="g8"
   style="fill:#fe5a1d;fill-opacity:1">
	<g
   id="c60_imac"
   style="fill:#fe5a1d;fill-opacity:1">
		<polygon
   points="16.679,22.015 11.083,22.015 8.285,25.746 8.285,27.613 11.083,27.613 16.679,27.613 19.478,27.613     19.478,25.746   "
   id="polygon2"
   style="fill:#fe5a1d;fill-opacity:1" />
		<path
   d="M25.913,0.152H1.853C0.83,0.152,0,0.986,0,2.015v17.092c0,1.029,0.83,1.864,1.853,1.864h24.061    c1.021,0,1.85-0.835,1.85-1.864V2.015C27.763,0.986,26.935,0.152,25.913,0.152z M14.006,20.291c-0.884,0-1.601-0.718-1.601-1.602    c0-0.883,0.717-1.6,1.601-1.6s1.601,0.717,1.601,1.6C15.606,19.573,14.89,20.291,14.006,20.291z M14.023,19.677    c-0.551,0-0.994-0.445-0.994-0.994c0-0.551,0.443-0.994,0.994-0.994c0.549,0,0.994,0.443,0.994,0.994    C15.018,19.232,14.572,19.677,14.023,19.677z M25.78,16.547H1.985V2.134H25.78V16.547z"
   id="path4"
   style="fill:#fe5a1d;fill-opacity:1" />
	</g>
	<g
   id="Capa_1_7_"
   style="fill:#fe5a1d;fill-opacity:1">
	</g>
</g>
<g
   id="g10">
</g>
<g
   id="g12">
</g>
<g
   id="g14">
</g>
<g
   id="g16">
</g>
<g
   id="g18">
</g>
<g
   id="g20">
</g>
<g
   id="g22">
</g>
<g
   id="g24">
</g>
<g
   id="g26">
</g>
<g
   id="g28">
</g>
<g
   id="g30">
</g>
<g
   id="g32">
</g>
<g
   id="g34">
</g>
<g
   id="g36">
</g>
<g
   id="g38">
</g>
</svg>